<svg xmlns="http://www.w3.org/2000/svg" viewBox="0 0 1200 720"><defs><linearGradient id="g" x1="0" x2="1" y1="0" y2="1"><stop stop-color="#dff6ff"/><stop offset="1" stop-color="#f8fbff"/></linearGradient><radialGradient id="r" cx="70%" cy="20%" r="60%"><stop stop-color="#9be7ff" stop-opacity=".6"/><stop offset="1" stop-color="#fff" stop-opacity="0"/></radialGradient></defs><rect width="1200" height="720" rx="44" fill="url(#g)"/><rect width="1200" height="720" fill="url(#r)"/><g fill="none" stroke="#1d79a6" stroke-opacity=".28" stroke-width="4"><path d="M50 0v720h80"/><path d="M120 0v650h130"/><path d="M190 0v580h180"/><path d="M260 0v510h230"/><path d="M330 0v440h80"/><path d="M400 0v720h130"/><path d="M470 0v650h180"/><path d="M540 0v580h230"/><path d="M610 0v510h80"/><path d="M680 0v440h130"/><path d="M750 0v720h180"/><path d="M820 0v650h230"/><path d="M890 0v580h80"/><path d="M960 0v510h130"/><path d="M1030 0v440h180"/><path d="M1100 0v720h230"/></g><g transform="translate(460 210)" fill="#0f3c5f"><circle cx="140" cy="140" r="110" fill="#e7f7ff" stroke="#27a9d7" stroke-width="8"/><path d="M80 145h120M110 105h60M115 185h50" stroke="#0f3c5f" stroke-width="16" stroke-linecap="round"/><path d="M140 35v-28M140 273v-28M35 140H7M273 140h-28" stroke="#27a9d7" stroke-width="10" stroke-linecap="round"/></g></svg>